<?xml version="1.0" encoding="UTF-8"?>
<svg width="420px" height="420px" viewBox="0 0 420 420" version="1.1" xmlns="http://www.w3.org/2000/svg" xmlns:xlink="http://www.w3.org/1999/xlink">
    <title>logo</title>
    <g id="Page-1" stroke="none" stroke-width="1" fill="none" fill-rule="evenodd">
        <g id="logo">
            <rect id="Rectangle" fill-opacity="0.0549657862" fill="#FFFFFF" x="0" y="0" width="420" height="420"></rect>
            <g id="_TXECoaYBw_rVw70eNsUxH" transform="translate(35.401613, 7.000000)" fill-rule="nonzero">
                <g id="_vnbZsdlUq29GhLH7GT-dA" transform="translate(0.000000, 160.888780)" fill="#0D0A09">
                    <path d="M85.5656434,147.831209 L76.9056599,146.256666 C76.1183887,146.256666 75.3311175,146.650302 75.3311175,147.437573 L74.1502107,154.91665 C74.1502107,155.703921 73.3629394,156.097557 72.9693038,156.097557 C70.2138546,156.491192 66.6711341,157.278463 65.0965916,155.703921 C62.3411423,152.948472 60.7665999,148.61848 58.4047862,143.894853 C58.7984219,143.894853 56.4366082,143.501217 56.0429726,144.288488 C54.0747945,149.012116 50.1384384,152.948472 45.8084467,149.799387 C41.478455,146.650302 38.7230057,141.139403 36.3611921,136.02214 C34.7866496,132.47942 37.9357345,126.18125 30.0630223,126.968521 C29.6693867,126.968521 28.4884798,123.032165 29.2757511,121.457623 C30.0630223,119.095809 32.0312003,117.127631 33.9993784,114.765817 C34.393014,114.372182 34.393014,113.978546 34.393014,113.584911 L32.8184716,103.74402 C35.5739208,102.563114 35.1802852,102.563114 37.9357345,101.382207 L39.1166413,102.563114 C40.2975482,102.169478 41.0848194,101.775842 41.0848194,101.382207 C41.478455,84.4558754 58.4047862,79.7322481 65.8838628,67.9231798 C69.8202189,61.2313744 76.1183887,56.1141115 82.0229229,50.9968486 C91.8638131,42.3368651 92.2574487,42.3368651 98.5556185,52.1777554 C98.9492541,52.9650266 99.7365253,52.9650266 100.523797,52.571391 L108.396509,45.48595 C108.002873,45.0923144 108.002873,44.3050432 107.609238,43.9114076 L105.247424,44.6986788 C103.672881,42.7305007 103.672881,42.7305007 102.098339,40.3686871 L109.577416,29.34689 C112.332865,29.7405256 112.7265,29.7405256 115.48195,30.1341612 L115.48195,30.1341612 C115.875585,30.9214324 116.662857,31.315068 117.450128,30.9214324 C120.599213,28.9532544 124.141933,26.9850763 127.291018,25.0168983 C133.589188,20.6869065 140.280993,16.3569148 146.579163,12.0269231 C148.153705,11.2396519 150.909155,10.8460163 150.909155,10.0587451 C153.664604,-2.14395887 164.292765,1.79239724 171.378206,0.611490406 C183.187275,-0.963052036 196.570886,-0.175780815 204.443598,11.2396519 C211.529039,21.4741778 220.976293,24.6232626 232.785362,23.0487202 C239.083531,22.261449 240.264438,25.0168983 241.838981,30.1341612 C243.019888,33.6768817 246.956244,37.6132378 250.498964,38.7941446 C258.371676,41.1559583 266.638024,40.7623227 268.606202,52.1777554 C269.787109,57.2950183 275.691643,62.4122813 280.808906,65.9550018 C291.043432,73.4340784 302.065229,80.1258837 312.299755,86.8176891 C313.087026,87.2113247 313.874297,86.8176891 314.267933,86.4240535 L315.842476,82.4876974 C316.236111,81.7004262 317.417018,81.7004262 318.204289,82.4876974 C320.172467,86.0304179 321.353374,88.7858672 322.534281,91.5413164 C323.321552,93.9031301 323.715188,96.6585794 324.108823,100.2013 C324.108823,100.988571 325.28973,101.775842 326.077001,100.988571 L332.768807,95.8713082 C333.162442,95.4776725 333.949714,95.4776725 334.343349,95.8713082 C339.066977,100.594935 344.184239,106.105834 348.907867,111.616733 C350.876045,113.978546 353.237859,117.127631 352.450587,119.489445 C352.056952,121.851258 348.514231,123.819436 345.758782,125.000343 C342.216061,126.574886 337.88607,126.968521 335.917892,127.362157 C335.524256,127.362157 335.13062,127.755793 335.13062,128.149428 C332.768807,133.266691 331.981536,138.383954 329.226086,139.171225 C326.077001,140.352132 321.74701,138.77759 317.810654,136.02214 C317.417018,135.628505 317.023382,135.628505 316.629747,136.02214 L291.043432,143.894853 C290.649796,143.894853 290.256161,144.288488 290.256161,144.682124 C285.532534,154.91665 278.840728,156.491192 265.850753,148.61848 C265.063482,148.224844 264.669846,147.831209 263.882575,147.831209 C253.254413,147.831209 243.019888,147.831209 233.178997,147.831209 C232.391726,147.831209 231.99809,148.224844 231.99809,149.012116 L231.99809,164.363904 C231.99809,165.151176 231.210819,165.938447 230.423548,165.544811 C224.125378,164.75754 217.039937,167.119354 214.678124,157.672099 C214.284488,156.884828 208.379954,156.491192 205.624505,157.278463 C203.262691,158.065735 201.294513,160.427548 198.932699,162.395726 C198.539064,162.789362 198.145428,163.576633 198.539064,163.970269 L201.294513,167.906625 C201.688148,168.693896 201.294513,169.874803 200.113606,169.874803 L189.485445,168.693896 C188.698173,168.693896 188.304538,167.906625 188.304538,167.119354 C189.87908,160.427548 198.539064,153.735743 187.910902,148.224844 C187.123631,148.61848 186.33636,149.012116 186.33636,149.405751 C185.942724,153.342107 185.549088,161.214819 184.761817,161.214819 C178.463647,161.608455 172.165478,160.821184 165.867308,159.640277 C163.505494,159.246641 160.750045,155.703921 159.175503,156.491192 C147.366434,160.427548 138.312815,157.672099 130.833739,148.224844 C130.440103,147.437573 129.259196,147.437573 128.865561,148.224844 C123.354662,156.884828 124.141933,159.640277 131.62101,163.576633 C132.801917,163.970269 132.408281,165.544811 131.227374,165.938447 L116.662857,169.087532 C115.875585,169.087532 115.088314,168.693896 115.088314,167.906625 C114.301043,165.151176 114.301043,162.002091 112.7265,160.821184 C110.364687,158.853006 106.428331,157.672099 103.279246,157.672099 C99.3428897,158.065735 95.4065336,159.640277 91.8638131,160.821184 C91.0765419,161.214819 90.2892707,160.821184 90.2892707,160.033913 L87.1401858,148.224844 C86.3529146,148.224844 85.959279,147.831209 85.5656434,147.831209 Z M56.4366082,98.2331218 L54.4684301,97.052215 C53.6811589,96.6585794 52.8938877,96.6585794 52.5002521,97.4458506 L43.8402687,110.04219 C43.446633,110.435826 43.446633,111.616733 44.2339043,112.010368 L46.2020823,113.191275 C46.5957179,113.584911 47.7766248,113.584911 48.1702604,112.797639 L56.8302438,100.2013 C57.2238794,99.4140286 56.8302438,98.6267574 56.4366082,98.2331218 Z" id="_2DdQFt6dHNHpPBvMudZi8"></path>
                    <path d="M23.3789262,103.388951 L19.4425701,122.677096 C19.4425701,123.070732 19.4425701,123.464367 19.8362057,123.858003 L31.2516384,133.305258 C32.0389096,133.698893 32.0389096,134.8798 31.2516384,135.273436 C28.4961891,137.241614 26.1343755,139.209792 23.3789262,140.784334 C21.0171125,139.209792 21.0171125,139.209792 18.6552989,137.635249 C22.1980193,123.070732 8.42077298,128.187995 0.941696378,125.03891 C0.154425157,124.645274 -0.239210453,123.858003 0.154425157,123.464367 C3.69714565,115.591655 0.941696378,104.176223 13.9316715,101.814409 C17.0807564,101.420773 20.2298413,99.8462309 22.9852906,98.665324 C26.1343755,97.0907816 28.8898247,95.1226035 32.0389096,93.5480611 C33.2198164,92.7607899 34.4007233,94.3353323 33.6134521,95.5162391 L24.9534686,105.750765 C24.9534686,104.963494 24.1661974,104.176223 23.3789262,103.388951 Z" id="_EgYGP_rvWpNTaLdOToYpz"></path>
                </g>
                <g id="_qFE2gS_9ZZHOX4zcNsH2e" transform="translate(66.918613, 0.000000)" fill="#3E8022">
                    <path d="M153.682513,95.98439 C155.190137,94.7326288 156.642652,93.5202311 158.040059,92.3550697 C159.555556,91.319808 161.004135,90.3278463 162.385796,89.3870572 C163.783202,88.4541408 165.2121,87.737724 166.51897,86.9622618 C169.140583,85.4152739 171.659851,84.5295937 173.655583,83.5022048 C177.875357,81.9394714 180.29228,81.0419822 180.29228,81.0419822 C180.29228,81.0419822 179.646717,81.0419822 178.430383,81.0459186 C177.214049,81.0931549 175.395453,81.0341095 173.096621,81.2230546 C170.860771,81.6442447 167.959676,81.7662718 164.869637,82.7582335 C163.314776,83.2305962 161.602461,83.6399773 159.870464,84.2658579 C158.169959,84.9980201 156.382853,85.7656096 154.520956,86.5646899 C152.737787,87.5527152 150.879827,88.5879769 148.954949,89.650793 C147.124543,90.8592544 145.313819,92.2409154 143.404687,93.61864 C141.660881,95.1577552 139.77143,96.6771887 137.992197,98.3737582 C136.291691,100.129373 134.461286,101.892861 132.882807,103.872848 C131.257092,105.829217 129.603822,107.836758 128.167052,110.00569 C126.612192,112.111641 125.202976,114.335682 123.888233,116.634514 C121.132784,121.16526 118.877252,126.02666 116.739811,130.907741 C114.866105,135.635305 113.118363,140.39436 111.752447,145.177032 C111.917774,140.878531 112.106719,136.517049 111.97682,131.943003 C111.84692,128.557737 111.720956,125.14098 111.58712,121.71635 C111.472966,118.287784 110.689631,114.878899 110.252696,111.45427 L109.398506,106.337007 L108.028654,101.322089 C107.013075,98.0194861 106.418685,94.6066654 105.005533,91.4654532 C103.741963,88.2848775 102.568929,85.0924927 101.084922,82.089053 C99.4906981,79.1446586 97.9122193,76.2396278 96.3573586,73.3739605 C94.5702529,70.6618112 92.7949563,68.0008345 90.9763598,65.4658211 C89.110527,62.966235 87.0203219,60.7264484 85.1348073,58.4551709 C81.1708967,54.0621975 77.0534683,50.2754229 73.0029578,47.1342107 C69.0193654,43.9260805 65.0987548,41.3477673 61.5048616,39.3166075 C59.7413741,38.249855 58.06055,37.3169386 56.4308986,36.5729673 C54.8406108,35.7817597 53.3684136,35.0810884 51.9985616,34.5260621 C49.3179031,33.3176008 47.0977983,32.6405476 45.613792,32.1406303 C44.110104,31.672204 43.2992147,31.4911316 43.2992147,31.4911316 C43.2992147,31.4911316 46.2042455,33.1680193 50.8491457,36.5611582 C52.0300525,37.375984 53.2778774,38.360073 54.6201748,39.4504436 C55.9742813,40.5171961 57.4386058,41.654803 58.910803,42.9892278 C60.414491,44.2764162 62.0126516,45.6344591 63.5596395,47.2286833 C65.1184365,48.795353 66.8858604,50.2832956 68.4604029,52.1215739 C71.7905601,55.6013127 75.0537994,59.6557595 78.3288476,64.005433 C79.836472,66.2806468 81.5330415,68.504688 82.9855569,70.9531015 C84.3435998,73.4684331 85.882715,75.9247193 87.331294,78.4833508 C88.5673099,81.1561366 89.8269438,83.8682859 91.0983868,86.6158625 C92.2438665,89.418548 93.1177375,92.3668788 94.2514081,95.2286096 C95.4795512,98.062786 95.9204231,101.196125 96.7903578,104.187756 L97.9437101,108.734247 L98.6089543,113.410638 C99.0104626,116.532169 99.8016702,119.594654 99.9197609,122.747675 C100.120515,125.89676 100.317333,129.034036 100.514151,132.143757 C100.734587,138.615127 100.951086,144.980214 101.163649,151.140612 C101.57303,163.528324 102.21072,175.093339 102.970437,185.00902 C103.663236,194.920764 104.525298,203.179239 105.186605,208.961747 C105.843977,214.744254 106.359639,218.050793 106.359639,218.050793 C106.359639,218.050793 106.875302,214.744254 107.532674,208.961747 C107.638955,208.02883 107.75311,207.009314 107.867264,205.950434 C108.780498,201.549588 110.10705,195.397063 111.748511,188.099059 C112.634191,184.402821 113.590726,180.399547 114.602369,176.164028 C115.633694,171.952126 116.897265,167.563089 118.14509,163.03628 C120.743085,154.010215 123.844933,144.547215 127.623835,135.450296 C129.536904,130.93136 131.583809,126.467532 133.859023,122.251694 C136.083064,117.996493 138.555096,114.008965 141.145218,110.296981 C143.735341,106.584997 146.502599,103.223349 149.305285,100.156927 C150.812909,98.7240939 152.269361,97.3306238 153.682513,95.98439 Z" id="_wyC98m9yqYO8RkmzAjpBd"></path>
                    <path d="M219.317117,57.4063222 L219.234453,57.3827041 C215.042234,56.1191338 210.790969,55.0248268 206.571196,53.8596654 C204.4495,53.3203846 202.225458,53.0645215 200.056526,52.6551404 L193.518239,51.5490244 L186.798879,51.2852885 C184.563029,51.2223068 182.34686,51.0372981 180.075583,51.3443338 L173.328668,51.94266 C171.084945,52.2536321 168.868777,52.9582398 166.664417,53.4620934 C164.440376,53.8911562 162.314744,54.7925818 160.196984,55.6625165 L157.028218,56.9457686 C155.996892,57.4181313 155.020676,58.0440119 154.036587,58.6265926 C152.076282,59.8035631 150.108104,60.9254246 148.399725,62.4606035 C146.616556,63.869819 144.864877,65.2829708 143.380871,66.9913494 L141.129275,69.4830628 L139.176843,72.1952121 C137.814863,73.9429542 136.807156,75.9347504 135.756149,77.8438831 C134.85866,79.8553611 133.92968,81.8156665 133.295927,83.8940625 C132.62281,85.9409677 132.118956,88.0626636 131.867029,90.1725505 C132.803882,88.2516087 133.75648,86.397585 134.961005,84.6773973 C136.023821,82.894228 137.338564,81.280322 138.586389,79.6703524 C140.023159,78.1863461 141.184384,76.5330766 142.75499,75.234079 L144.955413,73.1871739 L147.360527,71.4158136 C148.860279,70.1286252 150.584403,69.1602816 152.288845,68.203747 C153.91456,67.1251855 155.77252,66.4520686 157.563562,65.7238427 C158.476797,65.3853161 159.315241,64.9168897 160.240284,64.6255993 L163.050842,63.8619463 C164.908803,63.3344745 166.739208,62.7676393 168.711323,62.6338032 C170.64801,62.4133672 172.545333,62.0787769 174.474148,61.9331318 L180.339318,61.8268502 C182.276006,61.6733323 184.259929,62.0000498 186.224171,62.1929313 L192.109023,62.7912574 L197.997812,63.936737 C199.958117,64.3539908 201.934168,64.6098539 203.874792,65.1530711 C206.252351,65.8498061 208.618101,66.5662229 210.991723,67.2668943 C210.964169,67.4007304 210.944487,67.5385029 210.912996,67.6684026 C210.637451,69.341354 210.137534,70.9946235 209.704535,72.6557658 C209.090463,74.2539264 208.665337,75.9465595 207.854448,77.4699293 L206.795568,79.831743 C206.405869,80.5993324 205.941379,81.3275583 205.520188,82.0794023 C205.083253,82.8194373 204.685681,83.5988358 204.209382,84.3191889 L202.650585,86.397585 C202.119177,87.0825109 201.642878,87.8146732 201.072106,88.4720446 L199.245637,90.3536228 L197.423104,92.2430738 L195.395881,93.9514523 C193.998474,95.0378866 192.758522,96.368375 191.160361,97.2265006 L186.57057,100.139404 L181.595016,102.536645 C180.764445,102.938153 179.941747,103.382962 179.087557,103.756915 L176.434453,104.678023 C174.667029,105.30784 172.875987,105.89042 171.092818,106.575346 C169.286031,107.150054 167.408389,107.531881 165.558301,108.027862 L159.937185,109.44495 C156.122856,110.070831 152.277036,110.736075 148.372171,111.543028 C152.277036,111.999645 156.229137,112.314554 160.220602,112.594035 C162.212399,112.65308 164.200258,112.495626 166.203864,112.416899 C168.203533,112.298808 170.230756,112.286999 172.238298,112.070499 C174.237967,111.779209 176.225826,111.373764 178.233368,111.019492 L181.252553,110.468403 C182.244515,110.216476 183.216795,109.881885 184.208757,109.582722 C186.176935,108.976524 188.168731,108.378197 190.129036,107.67359 L195.797389,104.941759 C197.753758,104.126933 199.426709,102.76889 201.237433,101.647029 C202.123113,101.048702 203.04422,100.48974 203.89841,99.8402411 L206.295651,97.6831179 L208.692891,95.5023766 C209.452608,94.7387235 210.129661,93.8805979 210.846078,93.0697086 L212.967774,90.5898042 C213.625146,89.7277422 214.195917,88.8026985 214.821798,87.901273 C216.093241,86.1259764 217.191484,84.2365255 218.120464,82.2565383 C219.187217,80.3434693 219.844588,78.2493278 220.671223,76.2299771 C221.312849,74.139772 222.009584,72.0574397 222.387474,69.8806347 C222.859837,67.6644663 223.127509,65.6726701 223.249536,62.9565844 C223.363691,60.4884891 221.793085,58.1581663 219.317117,57.4063222 Z" id="_JDAYxjp-kXt23AdfB3B1v"></path>
                    <path d="M61.0827629,70.9410097 C59.1342667,70.015966 57.0755524,69.3585946 55.2372741,68.2209877 L49.6279667,65.119139 C47.7070249,64.1940954 45.9868373,62.9423341 44.2351588,61.7614273 C42.5149712,60.5332842 40.6806293,59.4901498 39.0706596,58.143916 L34.2368143,54.1681964 C32.6071629,52.8770716 31.2688018,51.278911 29.7769228,49.8618228 C28.253553,48.4644164 26.98211,46.846574 25.7067306,45.2484134 C24.384115,43.6896164 23.1441628,42.0717741 22.0459195,40.3594591 C20.8728853,38.7022532 19.7392148,37.0253655 18.8220438,35.2146417 L17.3498466,32.5733468 L16.1217035,29.8139611 C15.232087,28.0071737 14.64557,26.0901683 13.9645804,24.2125264 C13.4252996,22.30733 12.74431,20.4139428 12.3821652,18.4969373 C12.2876927,18.1229835 12.2050292,17.7293479 12.1263021,17.3396486 L15.6965771,16.2099144 L23.7503616,14.1354548 C26.4388929,13.5607468 29.1313604,13.0017842 31.8277644,12.5097397 C34.5241683,12.2381311 37.2363177,11.6673595 39.9209125,11.6161869 L43.9556775,11.4154327 C45.2940386,11.3996873 46.6166543,11.4980962 47.951079,11.529587 C50.6317375,11.517778 53.2179234,11.9507771 55.8395366,12.269622 L59.6853565,13.0647659 C60.9567996,13.3599926 62.1691972,13.8244826 63.4209585,14.1905638 C64.6924015,14.513345 65.8378811,15.1195438 67.0424061,15.607652 C68.2666128,16.0682056 69.4042198,16.6822772 70.5300176,17.3317759 C71.695179,17.9104203 72.8367223,18.5441736 73.8956021,19.3078267 C74.9859727,20.0242435 76.0999615,20.7209785 77.0879869,21.5909132 C79.1703193,23.1930102 81.0991337,25.0352248 82.8862394,27.027021 C86.4565144,31.006677 89.6213447,35.5295502 92.1524217,40.4893589 C93.4356738,42.9495815 94.6087079,45.5042766 95.671524,48.118017 C96.7579583,50.7238848 97.6554475,53.4202887 98.5135732,56.1403108 C100.194397,61.6000367 101.576058,67.2172169 102.422375,72.9839785 C103.004955,67.1621079 102.780583,61.2575737 102.099594,55.3727213 C101.690213,52.440136 101.190295,49.5075507 100.501433,46.5985836 C99.8322524,43.6896164 99.0449812,40.7767129 97.9546106,37.9543456 C96.9350944,35.1083601 95.7069512,32.3135473 94.2859267,29.5935252 C92.8885203,26.8616941 91.2746143,24.196781 89.3772906,21.720813 C87.5114578,19.2212269 85.4330618,16.8397314 83.1106117,14.6826083 C82.0044956,13.541065 80.7527344,12.5609123 79.5049095,11.5689506 C78.2885755,10.5297526 76.9738325,9.62832703 75.6118533,8.78201047 C74.2734923,7.89633035 72.899704,7.07756828 71.4432522,6.4123241 C70.0025459,5.72346178 68.5972668,4.92044513 67.0817697,4.42052791 C65.5859543,3.87731076 64.1019481,3.24749379 62.5785783,2.79481283 L57.9730416,1.57060609 C56.42999,1.1927159 54.8672567,1.01557988 53.3084596,0.736098592 C51.7496626,0.440871884 50.1908656,0.259799503 48.6281322,0.220435942 C47.0693352,0.145645176 45.4987291,0.0118090683 43.9438685,0 L39.2950319,0.137772464 C36.1774379,0.1613906 33.1700618,0.712480455 30.099704,0.988025382 C27.0883916,1.47613354 24.096761,2.04296882 21.1090667,2.62948588 C18.1882905,3.40494803 15.2557052,4.17253747 12.3664198,5.01885403 L3.83633611,7.89239399 L3.68675458,7.93963026 C1.36430448,8.72296513 -0.206301609,11.0139244 0.0220070447,13.5607468 C0.285742904,16.4893957 0.691187583,18.6740734 1.30132278,21.0713142 C1.83273085,23.4370643 2.58851123,25.700469 3.41514601,27.9363193 C4.33231698,30.1367423 5.17863354,32.3607835 6.32804953,34.4313069 L7.9537646,37.5882644 L9.83534281,40.5877678 C11.0280587,42.6268003 12.4412106,44.5044421 13.8976623,46.3466568 C14.6258882,47.2677641 15.3068778,48.2242986 16.0665945,49.1099788 L18.5110717,51.633183 C20.1249777,53.3218798 21.7388837,54.9948311 23.5810983,56.4197921 C25.3918221,57.8644347 27.0608371,59.4862135 28.9857153,60.7615928 L34.7288588,64.5601765 C36.6576733,65.7883196 38.7714965,66.6897451 40.7751018,67.7564976 C42.8023252,68.7838866 44.7941214,69.8624482 46.9394355,70.590674 C49.0375133,71.4212452 51.1749546,72.1534074 53.2730324,72.9328059 C55.3474921,73.7909315 57.5912151,74.1452036 59.7286564,74.7632115 L66.2078986,76.3534994 C70.600872,77.0620435 75.0095908,77.5777061 79.3592643,78.1130506 C75.210345,76.5581899 71.1047256,75.0387564 67.018788,73.6059228 L61.0827629,70.9410097 Z" id="_nheRG-kNs5VBMdsE-bCHC"></path>
                </g>
            </g>
            <path d="M11.6666655,413.380081 L11.6666655,413.380081 C5.8888885,413.380081 3,410.373758 3,404.361112 L3,404.361112 C3,403.562557 3.05871725,402.705286 3.17615174,401.789296 C3.29358623,400.873307 3.46973797,399.898601 3.70460695,398.865178 L3.70460695,398.865178 L8.6368556,375.75407 L18.008128,375.75407 L13.5691043,396.821817 C13.4281829,397.526424 13.3107484,398.160571 13.2168008,398.724256 C13.1228532,399.287942 13.0758794,399.82814 13.0758794,400.344852 L13.0758794,400.344852 C13.0758794,403.679992 14.4850933,405.347562 17.3035211,405.347562 L17.3035211,405.347562 C18.947604,405.347562 20.673891,404.795619 22.4823822,403.691735 C24.2908733,402.587851 25.9466997,400.908538 27.4498612,398.653796 L27.4498612,398.653796 L32.3116491,375.75407 L41.7533823,375.75407 L36.1869874,401.824527 C36.1400136,402.059396 36.1047832,402.282521 36.0812963,402.493903 C36.0578094,402.705286 36.046066,402.904924 36.046066,403.092819 L36.046066,403.092819 C36.046066,404.079269 36.6097515,404.595981 37.7371226,404.642955 L37.7371226,404.642955 L36.046066,412.675474 C35.2005376,412.816395 34.4607003,412.93383 33.8265541,413.027777 C33.1924078,413.121725 32.6169788,413.168699 32.100267,413.168699 L32.100267,413.168699 C30.4561842,413.168699 29.1761482,412.839882 28.2601592,412.182249 C27.3441701,411.524616 26.8861756,410.514679 26.8861756,409.152439 L26.8861756,409.152439 C26.8861756,408.776649 26.9096625,408.353885 26.9566363,407.884147 C27.0036101,407.414409 27.1445315,406.709802 27.3794005,405.770326 L27.3794005,405.770326 C25.2655796,408.306911 22.8581725,410.20935 20.1571792,411.477642 C17.4561859,412.745935 14.6260147,413.380081 11.6666655,413.380081 Z M43.0921355,412.675474 L50.9132726,375.75407 L59.4390167,375.75407 L57.9593421,382.588757 C59.7443464,380.240067 61.9990886,378.408089 64.7235688,377.092823 C67.4480491,375.777557 70.3369375,375.119923 73.3902343,375.119923 L73.3902343,375.119923 C74.9873434,375.119923 76.3143532,375.343049 77.3712636,375.7893 C78.428174,376.235551 79.2737024,376.834467 79.9078486,377.586048 C80.5419949,378.337628 80.9882459,379.241874 81.2466018,380.298785 C81.5049577,381.355695 81.6341357,382.471323 81.6341357,383.645668 L81.6341357,383.645668 C81.6341357,384.585143 81.5754184,385.55985 81.4579839,386.569786 C81.3405494,387.579723 81.1643977,388.601403 80.9295287,389.634827 L80.9295287,389.634827 L76.0677407,412.675474 L66.6260076,412.675474 L70.9945707,391.96003 C71.1354921,391.255423 71.2529266,390.586046 71.3468742,389.9519 C71.4408218,389.317753 71.4877956,388.742324 71.4877956,388.225613 L71.4877956,388.225613 C71.4877956,386.58153 71.1237486,385.371955 70.3956548,384.596887 C69.6675609,383.821819 68.6928547,383.434285 67.471536,383.434285 L67.471536,383.434285 C66.6260076,383.434285 65.7100186,383.622181 64.7235688,383.997971 C63.7371191,384.373761 62.7741563,384.902217 61.8346803,385.583337 C60.8952044,386.264457 60.0144457,387.074755 59.1924043,388.014231 C58.3703628,388.953707 57.6774993,389.98713 57.1138138,391.114501 L57.1138138,391.114501 L52.5338686,412.675474 L43.0921355,412.675474 Z M98.5447025,413.380081 L98.5447025,413.380081 C96.4778554,413.380081 94.6341339,412.992547 93.0135379,412.217479 C91.3929419,411.442412 90.0189584,410.373758 88.8915872,409.011518 C87.7642161,407.649278 86.9069443,406.040425 86.3197719,404.18496 C85.7325994,402.329495 85.4390132,400.344852 85.4390132,398.231031 L85.4390132,398.231031 C85.4390132,395.177735 85.9909553,392.253616 87.0948395,389.458675 C88.1987237,386.663734 89.6783983,384.209353 91.5338633,382.095532 C93.3893283,379.981711 95.5383795,378.290655 97.9810169,377.022362 C100.423654,375.75407 102.983726,375.119923 105.661233,375.119923 L105.661233,375.119923 C108.197818,375.119923 110.358612,375.777557 112.143617,377.092823 C113.928621,378.408089 115.14994,380.122633 115.807573,382.236454 L115.807573,382.236454 L117.216787,375.894991 L126.65852,375.894991 L121.162586,401.824527 C121.021664,402.341239 120.951203,402.764003 120.951203,403.092819 L120.951203,403.092819 C120.951203,404.079269 121.514889,404.595981 122.64226,404.642955 L122.64226,404.642955 L120.951203,412.675474 C120.105675,412.816395 119.365838,412.93383 118.731692,413.027777 C118.097545,413.121725 117.545603,413.168699 117.075865,413.168699 L117.075865,413.168699 C115.431782,413.168699 114.12826,412.816395 113.165297,412.111788 C112.202334,411.407181 111.720852,410.350271 111.720852,408.941057 L111.720852,408.941057 C111.720852,408.377371 111.861774,407.484869 112.143617,406.263551 L112.143617,406.263551 C110.358612,408.61224 108.256535,410.385501 105.837384,411.583333 C103.418234,412.781165 100.98734,413.380081 98.5447025,413.380081 Z M102.772344,405.347562 L102.772344,405.347562 C103.570899,405.347562 104.42817,405.194897 105.34416,404.889567 C106.260149,404.584237 107.140907,404.14973 107.986436,403.586044 C108.831964,403.022359 109.630518,402.364726 110.382099,401.613145 C111.13368,400.861564 111.767826,400.039523 112.284538,399.14702 L112.284538,399.14702 L114.116516,390.339434 C113.834673,388.272586 113.012632,386.558043 111.650392,385.195803 C110.288152,383.833563 108.714529,383.152443 106.929525,383.152443 L106.929525,383.152443 C105.426364,383.152443 103.970176,383.539976 102.560962,384.315044 C101.151748,385.090112 99.918686,386.123535 98.8617756,387.415315 C97.8048652,388.707094 96.9593368,390.163282 96.3251906,391.783878 C95.6910443,393.404474 95.3739712,395.0603 95.3739712,396.751357 L95.3739712,396.751357 C95.3739712,399.193994 96.0316043,401.237354 97.3468706,402.881437 C98.662137,404.52552 100.470628,405.347562 102.772344,405.347562 Z M136.80486,412.675474 L131.872611,375.75407 L141.666648,375.75407 L143.92139,404.995258 C145.612447,402.411699 147.150839,399.922088 148.536566,397.526424 C149.922293,395.130761 151.190585,392.746841 152.341443,390.374664 C153.492301,388.002487 154.525725,385.63031 155.441714,383.258134 C156.357703,380.885957 157.191488,378.384602 157.943068,375.75407 L157.943068,375.75407 L166.609734,375.75407 C164.918677,381.907637 162.370349,388.061204 158.964748,394.214772 C155.559148,400.368339 151.460684,406.521907 146.669357,412.675474 L146.669357,412.675474 L136.80486,412.675474 Z M175.628703,413.380081 L175.628703,413.380081 C169.850926,413.380081 166.962037,410.373758 166.962037,404.361112 L166.962037,404.361112 C166.962037,403.562557 167.020755,402.705286 167.138189,401.789296 C167.255624,400.873307 167.431775,399.898601 167.666644,398.865178 L167.666644,398.865178 L172.598893,375.75407 L181.970165,375.75407 L177.531142,396.821817 C177.39022,397.526424 177.272786,398.160571 177.178838,398.724256 C177.084891,399.287942 177.037917,399.82814 177.037917,400.344852 L177.037917,400.344852 C177.037917,403.679992 178.447131,405.347562 181.265558,405.347562 L181.265558,405.347562 C182.909641,405.347562 184.635928,404.795619 186.44442,403.691735 C188.252911,402.587851 189.908737,400.908538 191.411899,398.653796 L191.411899,398.653796 L196.273686,375.75407 L205.71542,375.75407 L200.149025,401.824527 C200.102051,402.059396 200.066821,402.282521 200.043334,402.493903 C200.019847,402.705286 200.008103,402.904924 200.008103,403.092819 L200.008103,403.092819 C200.008103,404.079269 200.571789,404.595981 201.69916,404.642955 L201.69916,404.642955 L200.008103,412.675474 C199.162575,412.816395 198.422738,412.93383 197.788591,413.027777 C197.154445,413.121725 196.579016,413.168699 196.062304,413.168699 L196.062304,413.168699 C194.418221,413.168699 193.138186,412.839882 192.222196,412.182249 C191.306207,411.524616 190.848213,410.514679 190.848213,409.152439 L190.848213,409.152439 C190.848213,408.776649 190.8717,408.353885 190.918674,407.884147 C190.965647,407.414409 191.106569,406.709802 191.341438,405.770326 L191.341438,405.770326 C189.227617,408.306911 186.82021,410.20935 184.119217,411.477642 C181.418223,412.745935 178.588052,413.380081 175.628703,413.380081 Z M207.054173,412.675474 L217.975581,361.239167 L227.346853,361.239167 L222.273683,385.195803 C224.246582,382.236454 226.489581,379.84079 229.002679,378.008812 C231.515777,376.176834 234.298975,375.260845 237.352272,375.260845 L237.352272,375.260845 C239.93583,375.260845 241.861756,375.965452 243.130049,377.374666 C244.398341,378.78388 245.032487,380.756779 245.032487,383.293364 L245.032487,383.293364 C245.032487,386.346661 244.128242,389.176832 242.319751,391.783878 C240.511259,394.390924 237.868983,396.539975 234.392922,398.231031 L234.392922,398.231031 L241.298071,412.675474 L231.292652,412.675474 L224.105661,395.976289 C228.098434,395.177735 231.175217,393.885955 233.336012,392.100951 C235.496807,390.315947 236.577204,388.413508 236.577204,386.393635 L236.577204,386.393635 C236.577204,385.313237 236.271874,384.514683 235.661215,383.997971 C235.050556,383.481259 234.275488,383.222903 233.336012,383.222903 L233.336012,383.222903 C232.114693,383.222903 230.858144,383.55172 229.566365,384.209353 C228.274585,384.866986 227.02978,385.782975 225.831948,386.95732 C224.634116,388.131665 223.518489,389.493905 222.485065,391.044041 C221.451641,392.594176 220.606113,394.238259 219.94848,395.976289 L219.94848,395.976289 L216.425445,412.675474 L207.054173,412.675474 Z M260.956604,413.380081 L260.956604,413.380081 C258.889757,413.380081 257.046036,412.992547 255.42544,412.217479 C253.804844,411.442412 252.43086,410.373758 251.303489,409.011518 C250.176118,407.649278 249.318846,406.040425 248.731674,404.18496 C248.144501,402.329495 247.850915,400.344852 247.850915,398.231031 L247.850915,398.231031 C247.850915,395.177735 248.402857,392.253616 249.506742,389.458675 C250.610626,386.663734 252.0903,384.209353 253.945765,382.095532 C255.80123,379.981711 257.950282,378.290655 260.392919,377.022362 C262.835556,375.75407 265.395628,375.119923 268.073135,375.119923 L268.073135,375.119923 C270.60972,375.119923 272.770514,375.777557 274.555519,377.092823 C276.340523,378.408089 277.561842,380.122633 278.219475,382.236454 L278.219475,382.236454 L279.628689,375.894991 L289.070422,375.894991 L283.574488,401.824527 C283.433566,402.341239 283.363106,402.764003 283.363106,403.092819 L283.363106,403.092819 C283.363106,404.079269 283.926791,404.595981 285.054162,404.642955 L285.054162,404.642955 L283.363106,412.675474 C282.517577,412.816395 281.77774,412.93383 281.143594,413.027777 C280.509447,413.121725 279.957505,413.168699 279.487767,413.168699 L279.487767,413.168699 C277.843684,413.168699 276.540162,412.816395 275.577199,412.111788 C274.614236,411.407181 274.132754,410.350271 274.132754,408.941057 L274.132754,408.941057 C274.132754,408.377371 274.273676,407.484869 274.555519,406.263551 L274.555519,406.263551 C272.770514,408.61224 270.668437,410.385501 268.249286,411.583333 C265.830136,412.781165 263.399242,413.380081 260.956604,413.380081 Z M265.184246,405.347562 L265.184246,405.347562 C265.982801,405.347562 266.840073,405.194897 267.756062,404.889567 C268.672051,404.584237 269.552809,404.14973 270.398338,403.586044 C271.243866,403.022359 272.042421,402.364726 272.794001,401.613145 C273.545582,400.861564 274.179728,400.039523 274.69644,399.14702 L274.69644,399.14702 L276.528418,390.339434 C276.246575,388.272586 275.424534,386.558043 274.062294,385.195803 C272.700054,383.833563 271.126431,383.152443 269.341427,383.152443 L269.341427,383.152443 C267.838266,383.152443 266.382078,383.539976 264.972864,384.315044 C263.56365,385.090112 262.330588,386.123535 261.273678,387.415315 C260.216767,388.707094 259.371239,390.163282 258.737093,391.783878 C258.102946,393.404474 257.785873,395.0603 257.785873,396.751357 L257.785873,396.751357 C257.785873,399.193994 258.443506,401.237354 259.758773,402.881437 C261.074039,404.52552 262.88253,405.347562 265.184246,405.347562 Z M304.924078,413.380081 L304.924078,413.380081 C302.857231,413.380081 301.01351,412.992547 299.392914,412.217479 C297.772318,411.442412 296.398334,410.373758 295.270963,409.011518 C294.143592,407.649278 293.28632,406.040425 292.699148,404.18496 C292.111975,402.329495 291.818389,400.344852 291.818389,398.231031 L291.818389,398.231031 C291.818389,395.177735 292.370331,392.253616 293.474215,389.458675 C294.578099,386.663734 296.057774,384.209353 297.913239,382.095532 C299.768704,379.981711 301.917755,378.290655 304.360393,377.022362 C306.80303,375.75407 309.363102,375.119923 312.040608,375.119923 L312.040608,375.119923 C314.577193,375.119923 316.737988,375.777557 318.522992,377.092823 C320.307997,378.408089 321.529315,380.122633 322.186948,382.236454 L322.186948,382.236454 L323.596162,375.894991 L333.037896,375.894991 L327.541961,401.824527 C327.40104,402.341239 327.330579,402.764003 327.330579,403.092819 L327.330579,403.092819 C327.330579,404.079269 327.894265,404.595981 329.021636,404.642955 L329.021636,404.642955 L327.330579,412.675474 C326.485051,412.816395 325.745214,412.93383 325.111067,413.027777 C324.476921,413.121725 323.924979,413.168699 323.455241,413.168699 L323.455241,413.168699 C321.811158,413.168699 320.507635,412.816395 319.544672,412.111788 C318.58171,411.407181 318.100228,410.350271 318.100228,408.941057 L318.100228,408.941057 C318.100228,408.377371 318.24115,407.484869 318.522992,406.263551 L318.522992,406.263551 C316.737988,408.61224 314.635911,410.385501 312.21676,411.583333 C309.79761,412.781165 307.366716,413.380081 304.924078,413.380081 Z M309.15172,405.347562 L309.15172,405.347562 C309.950274,405.347562 310.807546,405.194897 311.723535,404.889567 C312.639524,404.584237 313.520283,404.14973 314.365811,403.586044 C315.21134,403.022359 316.009894,402.364726 316.761475,401.613145 C317.513056,400.861564 318.147202,400.039523 318.663914,399.14702 L318.663914,399.14702 L320.495892,390.339434 C320.214049,388.272586 319.392008,386.558043 318.029767,385.195803 C316.667527,383.833563 315.093905,383.152443 313.308901,383.152443 L313.308901,383.152443 C311.805739,383.152443 310.349552,383.539976 308.940338,384.315044 C307.531124,385.090112 306.298062,386.123535 305.241151,387.415315 C304.184241,388.707094 303.338713,390.163282 302.704566,391.783878 C302.07042,393.404474 301.753347,395.0603 301.753347,396.751357 L301.753347,396.751357 C301.753347,399.193994 302.41098,401.237354 303.726246,402.881437 C305.041513,404.52552 306.850004,405.347562 309.15172,405.347562 Z M348.891552,413.380081 L348.891552,413.380081 C346.824705,413.380081 344.980983,412.992547 343.360387,412.217479 C341.739791,411.442412 340.365808,410.373758 339.238437,409.011518 C338.111066,407.649278 337.253794,406.040425 336.666621,404.18496 C336.079449,402.329495 335.785863,400.344852 335.785863,398.231031 L335.785863,398.231031 C335.785863,395.177735 336.337805,392.253616 337.441689,389.458675 C338.545573,386.663734 340.025248,384.209353 341.880713,382.095532 C343.736178,379.981711 345.885229,378.290655 348.327866,377.022362 C350.770504,375.75407 353.330576,375.119923 356.008082,375.119923 L356.008082,375.119923 C358.544667,375.119923 360.705462,375.777557 362.490466,377.092823 C364.27547,378.408089 365.496789,380.122633 366.154422,382.236454 L366.154422,382.236454 L370.663907,361.239167 L380.10564,361.239167 L371.509435,401.824527 C371.368514,402.341239 371.298053,402.764003 371.298053,403.092819 L371.298053,403.092819 C371.298053,404.079269 371.861738,404.595981 372.98911,404.642955 L372.98911,404.642955 L371.298053,412.675474 C370.452525,412.816395 369.712687,412.93383 369.078541,413.027777 C368.444395,413.121725 367.892453,413.168699 367.422715,413.168699 L367.422715,413.168699 C365.778632,413.168699 364.475109,412.839882 363.512146,412.182249 C362.549183,411.524616 362.067702,410.514679 362.067702,409.152439 L362.067702,409.152439 C362.067702,408.776649 362.102932,408.365628 362.173393,407.919377 C362.243854,407.473126 362.349545,406.921184 362.490466,406.263551 L362.490466,406.263551 C360.705462,408.61224 358.603384,410.385501 356.184234,411.583333 C353.765083,412.781165 351.334189,413.380081 348.891552,413.380081 Z M353.119194,405.347562 L353.119194,405.347562 C353.917748,405.347562 354.77502,405.194897 355.691009,404.889567 C356.606998,404.584237 357.487757,404.14973 358.333285,403.586044 C359.178813,403.022359 359.977368,402.364726 360.728949,401.613145 C361.480529,400.861564 362.114676,400.039523 362.631387,399.14702 L362.631387,399.14702 L364.463365,390.339434 C364.181523,388.272586 363.359481,386.558043 361.997241,385.195803 C360.635001,383.833563 359.061379,383.152443 357.276375,383.152443 L357.276375,383.152443 C355.773213,383.152443 354.317025,383.539976 352.907812,384.315044 C351.498598,385.090112 350.265535,386.123535 349.208625,387.415315 C348.151715,388.707094 347.306186,390.163282 346.67204,391.783878 C346.037894,393.404474 345.720821,395.0603 345.720821,396.751357 L345.720821,396.751357 C345.720821,399.193994 346.378454,401.237354 347.69372,402.881437 C349.008986,404.52552 350.817478,405.347562 353.119194,405.347562 Z M388.913227,413.380081 L388.913227,413.380081 C383.13545,413.380081 380.246561,410.373758 380.246561,404.361112 L380.246561,404.361112 C380.246561,403.562557 380.305278,402.705286 380.422713,401.789296 C380.540147,400.873307 380.716299,399.898601 380.951168,398.865178 L380.951168,398.865178 L385.883417,375.75407 L395.254689,375.75407 L390.815665,396.821817 C390.674744,397.526424 390.55731,398.160571 390.463362,398.724256 C390.369414,399.287942 390.322441,399.82814 390.322441,400.344852 L390.322441,400.344852 C390.322441,403.679992 391.731654,405.347562 394.550082,405.347562 L394.550082,405.347562 C396.194165,405.347562 397.920452,404.795619 399.728943,403.691735 C401.537435,402.587851 403.193261,400.908538 404.696422,398.653796 L404.696422,398.653796 L409.55821,375.75407 L418.999943,375.75407 L413.433549,401.824527 C413.386575,402.059396 413.351344,402.282521 413.327857,402.493903 C413.304371,402.705286 413.292627,402.904924 413.292627,403.092819 L413.292627,403.092819 C413.292627,404.079269 413.856313,404.595981 414.983684,404.642955 L414.983684,404.642955 L413.292627,412.675474 C412.447099,412.816395 411.707262,412.93383 411.073115,413.027777 C410.438969,413.121725 409.86354,413.168699 409.346828,413.168699 L409.346828,413.168699 C407.702745,413.168699 406.422709,412.839882 405.50672,412.182249 C404.590731,411.524616 404.132737,410.514679 404.132737,409.152439 L404.132737,409.152439 C404.132737,408.776649 404.156224,408.353885 404.203197,407.884147 C404.250171,407.414409 404.391093,406.709802 404.625962,405.770326 L404.625962,405.770326 C402.512141,408.306911 400.104734,410.20935 397.40374,411.477642 C394.702747,412.745935 391.872576,413.380081 388.913227,413.380081 Z" id="_T202KKAlcTpm5RGYhrsS6" fill="#59A638" fill-rule="nonzero"></path>
        </g>
    </g>
</svg>