<svg viewBox="0 0 512 512" class="fl-svg" style="transform: scale(0.5);"><svg xmlns="http://www.w3.org/2000/svg" width="512" height="512" viewBox="0 0 512 512" data-svgdocument="" id="_3xXqRnDPM3vWwKv_YfeND" class="fl-svgdocument" x="0" y="0" style="overflow: hidden;" xmlns:xlink="http://www.w3.org/1999/xlink"><defs id="_IIsxKeDDYejW9PbJxyh30" transform="matrix(1.12518826527502, 0, 0, 1.12518826527502, -26.081848658661414, -13.523457918018813)"></defs><g id="_TXECoaYBw_rVw70eNsUxH" transform="matrix(1.1489627500283217, 0, 0, 1.1489627500283217, -30.195054547105837, -11.502877646963826)"><g id="_vnbZsdlUq29GhLH7GT-dA"><path id="_2DdQFt6dHNHpPBvMudZi8" d="M28.3,66l-2.2-0.4c-0.2,0-0.4,0.1-0.4,0.3l-0.3,1.9c0,0.2-0.2,0.3-0.3,0.3c-0.7,0.1-1.6,0.3-2-0.1c-0.7-0.7-1.1-1.8-1.7-3  c0.1,0-0.5-0.1-0.6,0.1c-0.5,1.2-1.5,2.2-2.6,1.4c-1.1-0.8-1.8-2.2-2.4-3.5c-0.4-0.9,0.4-2.5-1.6-2.3c-0.1,0-0.4-1-0.2-1.4  c0.2-0.6,0.7-1.1,1.2-1.7c0.1-0.1,0.1-0.2,0.1-0.3l-0.4-2.5c0.7-0.3,0.6-0.3,1.3-0.6l0.3,0.3c0.3-0.1,0.5-0.2,0.5-0.3  c0.1-4.3,4.4-5.5,6.3-8.5c1-1.7,2.6-3,4.1-4.3c2.5-2.2,2.6-2.2,4.2,0.3c0.1,0.2,0.3,0.2,0.5,0.1l2-1.8c-0.1-0.1-0.1-0.3-0.2-0.4  l-0.6,0.2c-0.4-0.5-0.4-0.5-0.8-1.1l1.9-2.8c0.7,0.1,0.8,0.1,1.5,0.2l0,0c0.1,0.2,0.3,0.3,0.5,0.2c0.8-0.5,1.7-1,2.5-1.5  c1.6-1.1,3.3-2.2,4.9-3.3c0.4-0.2,1.1-0.3,1.1-0.5c0.7-3.1,3.4-2.1,5.2-2.4c3-0.4,6.4-0.2,8.4,2.7c1.8,2.6,4.2,3.4,7.2,3  c1.6-0.2,1.9,0.5,2.3,1.8c0.3,0.9,1.3,1.9,2.2,2.2c2,0.6,4.1,0.5,4.6,3.4c0.3,1.3,1.8,2.6,3.1,3.5c2.6,1.9,5.4,3.6,8,5.3  c0.2,0.1,0.4,0,0.5-0.1l0.4-1c0.1-0.2,0.4-0.2,0.6,0c0.5,0.9,0.8,1.6,1.1,2.3c0.2,0.6,0.3,1.3,0.4,2.2c0,0.2,0.3,0.4,0.5,0.2  l1.7-1.3c0.1-0.1,0.3-0.1,0.4,0c1.2,1.2,2.5,2.6,3.7,4c0.5,0.6,1.1,1.4,0.9,2c-0.1,0.6-1,1.1-1.7,1.4c-0.9,0.4-2,0.5-2.5,0.6  c-0.1,0-0.2,0.1-0.2,0.2c-0.6,1.3-0.8,2.6-1.5,2.8c-0.8,0.3-1.9-0.1-2.9-0.8c-0.1-0.1-0.2-0.1-0.3,0l-6.5,2c-0.1,0-0.2,0.1-0.2,0.2  c-1.2,2.6-2.9,3-6.2,1c-0.2-0.1-0.3-0.2-0.5-0.2c-2.7,0-5.3,0-7.8,0c-0.2,0-0.3,0.1-0.3,0.3v3.9c0,0.2-0.2,0.4-0.4,0.3  c-1.6-0.2-3.4,0.4-4-2c-0.1-0.2-1.6-0.3-2.3-0.1c-0.6,0.2-1.1,0.8-1.7,1.3c-0.1,0.1-0.2,0.3-0.1,0.4l0.7,1c0.1,0.2,0,0.5-0.3,0.5  l-2.7-0.3c-0.2,0-0.3-0.2-0.3-0.4c0.4-1.7,2.6-3.4-0.1-4.8c-0.2,0.1-0.4,0.2-0.4,0.3c-0.1,1-0.2,3-0.4,3c-1.6,0.1-3.2-0.1-4.8-0.4  c-0.6-0.1-1.3-1-1.7-0.8c-3,1-5.3,0.3-7.2-2.1c-0.1-0.2-0.4-0.2-0.5,0C37.9,68.3,38.1,69,40,70c0.3,0.1,0.2,0.5-0.1,0.6l-3.7,0.8  c-0.2,0-0.4-0.1-0.4-0.3c-0.2-0.7-0.2-1.5-0.6-1.8c-0.6-0.5-1.6-0.8-2.4-0.8c-1,0.1-2,0.5-2.9,0.8c-0.2,0.1-0.4,0-0.4-0.2l-0.8-3  C28.5,66.1,28.4,66,28.3,66z M20.9,53.4l-0.5-0.3C20.2,53,20,53,19.9,53.2l-2.2,3.2c-0.1,0.1-0.1,0.4,0.1,0.5l0.5,0.3  c0.1,0.1,0.4,0.1,0.5-0.1l2.2-3.2C21.1,53.7,21,53.5,20.9,53.4z" fill="#0d0a09" transform="matrix(3.426008462905884, 0, 0, 3.426008462905884, 73.77388763427734, 98.55265808105469)"></path><path id="_EgYGP_rvWpNTaLdOToYpz" d="M11.3,54.6l-1,4.9c0,0.1,0,0.2,0.1,0.3l2.9,2.4c0.2,0.1,0.2,0.4,0,0.5c-0.7,0.5-1.3,1-2,1.4c-0.6-0.4-0.6-0.4-1.2-0.8  c0.9-3.7-2.6-2.4-4.5-3.2c-0.2-0.1-0.3-0.3-0.2-0.4c0.9-2,0.2-4.9,3.5-5.5c0.8-0.1,1.6-0.5,2.3-0.8c0.8-0.4,1.5-0.9,2.3-1.3  c0.3-0.2,0.6,0.2,0.4,0.5l-2.2,2.6C11.7,55,11.5,54.8,11.3,54.6z" fill="#0d0a09" transform="matrix(3.426008462905884, 0, 0, 3.426008462905884, 77.89180755615234, 98.92882537841797)"></path></g><g id="_qFE2gS_9ZZHOX4zcNsH2e"><path id="_wyC98m9yqYO8RkmzAjpBd" d="M54.34,42.849c0.383-0.318,0.752-0.626,1.107-0.922c0.385-0.263,0.753-0.515,1.104-0.754   c0.355-0.237,0.718-0.419,1.05-0.616c0.666-0.393,1.306-0.618,1.813-0.879c1.072-0.397,1.686-0.625,1.686-0.625   s-0.164,0-0.473,0.001c-0.309,0.012-0.771-0.003-1.355,0.045c-0.568,0.107-1.305,0.138-2.09,0.39   c-0.395,0.12-0.83,0.224-1.27,0.383c-0.432,0.186-0.886,0.381-1.359,0.584c-0.453,0.251-0.925,0.514-1.414,0.784   c-0.465,0.307-0.925,0.658-1.41,1.008c-0.443,0.391-0.923,0.777-1.375,1.208c-0.432,0.446-0.897,0.894-1.298,1.397   c-0.413,0.497-0.833,1.007-1.198,1.558c-0.395,0.535-0.753,1.1-1.087,1.684c-0.7,1.151-1.273,2.386-1.816,3.626   c-0.476,1.201-0.92,2.41-1.267,3.625c0.042-1.092,0.09-2.2,0.057-3.362c-0.033-0.86-0.065-1.728-0.099-2.598   c-0.029-0.871-0.228-1.737-0.339-2.607l-0.217-1.3l-0.348-1.274c-0.258-0.839-0.409-1.706-0.768-2.504   c-0.321-0.808-0.619-1.619-0.996-2.382c-0.405-0.748-0.806-1.486-1.201-2.214c-0.454-0.689-0.905-1.365-1.367-2.009   c-0.474-0.635-1.005-1.204-1.484-1.781c-1.007-1.116-2.053-2.078-3.082-2.876c-1.012-0.815-2.008-1.47-2.921-1.986   c-0.448-0.271-0.875-0.508-1.289-0.697c-0.404-0.201-0.778-0.379-1.126-0.52c-0.681-0.307-1.245-0.479-1.622-0.606   c-0.382-0.119-0.588-0.165-0.588-0.165s0.738,0.426,1.918,1.288c0.3,0.207,0.617,0.457,0.958,0.734   c0.344,0.271,0.716,0.56,1.09,0.899c0.382,0.327,0.788,0.672,1.181,1.077c0.396,0.398,0.845,0.776,1.245,1.243   c0.846,0.884,1.675,1.914,2.507,3.019c0.383,0.578,0.814,1.143,1.183,1.765c0.345,0.639,0.736,1.263,1.104,1.913   c0.314,0.679,0.634,1.368,0.957,2.066c0.291,0.712,0.513,1.461,0.801,2.188c0.312,0.72,0.424,1.516,0.645,2.276l0.293,1.155   l0.169,1.188c0.102,0.793,0.303,1.571,0.333,2.372c0.051,0.8,0.101,1.597,0.151,2.387c0.056,1.644,0.111,3.261,0.165,4.826   c0.104,3.147,0.266,6.085,0.459,8.604c0.176,2.518,0.395,4.616,0.563,6.085c0.167,1.469,0.298,2.309,0.298,2.309   s0.131-0.84,0.298-2.309c0.027-0.237,0.056-0.496,0.085-0.765c0.232-1.118,0.569-2.681,0.986-4.535   c0.225-0.939,0.468-1.956,0.725-3.032c0.262-1.07,0.583-2.185,0.9-3.335c0.66-2.293,1.448-4.697,2.408-7.008   c0.486-1.148,1.006-2.282,1.584-3.353c0.565-1.081,1.193-2.094,1.851-3.037s1.361-1.797,2.073-2.576   C53.611,43.545,53.981,43.191,54.34,42.849z" fill="#3e8022" transform="matrix(3.426008462905884, 0, 0, 3.426008462905884, 102.08879089355469, -7.286298751831055)"></path><path id="_JDAYxjp-kXt23AdfB3B1v" d="M71.227,32.95l-0.021-0.006c-1.065-0.321-2.145-0.599-3.217-0.895c-0.539-0.137-1.104-0.202-1.655-0.306l-1.661-0.281   l-1.707-0.067c-0.568-0.016-1.131-0.063-1.708,0.015l-1.714,0.152c-0.57,0.079-1.133,0.258-1.693,0.386   c-0.565,0.109-1.105,0.338-1.643,0.559l-0.805,0.326c-0.262,0.12-0.51,0.279-0.76,0.427c-0.498,0.299-0.998,0.584-1.432,0.974   c-0.453,0.358-0.898,0.717-1.275,1.151l-0.572,0.633l-0.496,0.689c-0.346,0.444-0.602,0.95-0.869,1.435   c-0.228,0.511-0.464,1.009-0.625,1.537c-0.171,0.52-0.299,1.059-0.363,1.595c0.238-0.488,0.48-0.959,0.786-1.396   c0.27-0.453,0.604-0.863,0.921-1.272c0.365-0.377,0.66-0.797,1.059-1.127l0.559-0.52l0.611-0.45   c0.381-0.327,0.819-0.573,1.252-0.816c0.413-0.274,0.885-0.445,1.34-0.63c0.232-0.086,0.445-0.205,0.68-0.279l0.714-0.194   c0.472-0.134,0.937-0.278,1.438-0.312c0.492-0.056,0.974-0.141,1.464-0.178l1.49-0.027c0.492-0.039,0.996,0.044,1.495,0.093   l1.495,0.152l1.496,0.291c0.498,0.106,1,0.171,1.493,0.309c0.604,0.177,1.205,0.359,1.808,0.537   c-0.007,0.034-0.012,0.069-0.02,0.102c-0.07,0.425-0.197,0.845-0.307,1.267c-0.156,0.406-0.264,0.836-0.47,1.223l-0.269,0.6   c-0.099,0.195-0.217,0.38-0.324,0.571c-0.111,0.188-0.212,0.386-0.333,0.569l-0.396,0.528c-0.135,0.174-0.256,0.36-0.401,0.527   l-0.464,0.478L65.665,41.8l-0.515,0.434c-0.355,0.276-0.67,0.614-1.076,0.832l-1.166,0.74l-1.264,0.609   c-0.211,0.102-0.42,0.215-0.637,0.31l-0.674,0.234c-0.449,0.16-0.904,0.308-1.357,0.482c-0.459,0.146-0.936,0.243-1.406,0.369   l-1.428,0.36c-0.969,0.159-1.946,0.328-2.938,0.533c0.992,0.116,1.996,0.196,3.01,0.267c0.506,0.015,1.011-0.025,1.52-0.045   c0.508-0.03,1.023-0.033,1.533-0.088c0.508-0.074,1.013-0.177,1.523-0.267l0.767-0.14c0.252-0.064,0.499-0.149,0.751-0.225   c0.5-0.154,1.006-0.306,1.504-0.485l1.44-0.694c0.497-0.207,0.922-0.552,1.382-0.837c0.225-0.152,0.459-0.294,0.676-0.459   l0.609-0.548l0.609-0.554c0.193-0.194,0.365-0.412,0.547-0.618l0.539-0.63c0.167-0.219,0.312-0.454,0.471-0.683   c0.323-0.451,0.602-0.931,0.838-1.434c0.271-0.486,0.438-1.018,0.648-1.531c0.163-0.531,0.34-1.06,0.436-1.613   c0.12-0.563,0.188-1.069,0.219-1.759C72.255,33.733,71.856,33.141,71.227,32.95z" fill="#3e8022" transform="matrix(3.426008462905884, 0, 0, 3.426008462905884, 101.35887908935547, -6.948671340942383)"></path><path id="_nheRG-kNs5VBMdsE-bCHC" d="M30.525,36.803c-0.495-0.235-1.018-0.402-1.485-0.691l-1.425-0.788c-0.488-0.235-0.925-0.553-1.37-0.853   c-0.437-0.312-0.903-0.577-1.312-0.919l-1.228-1.01c-0.414-0.328-0.754-0.734-1.133-1.094c-0.387-0.355-0.71-0.766-1.034-1.172   c-0.336-0.396-0.651-0.807-0.93-1.242c-0.298-0.421-0.586-0.847-0.819-1.307l-0.374-0.671l-0.312-0.701   c-0.226-0.459-0.375-0.946-0.548-1.423c-0.137-0.484-0.31-0.965-0.402-1.452c-0.024-0.095-0.045-0.195-0.065-0.294l0.907-0.287   l2.046-0.527c0.683-0.146,1.367-0.288,2.052-0.413c0.685-0.069,1.374-0.214,2.056-0.227l1.025-0.051   c0.34-0.004,0.676,0.021,1.015,0.029c0.681-0.003,1.338,0.107,2.004,0.188l0.977,0.202c0.323,0.075,0.631,0.193,0.949,0.286   c0.323,0.082,0.614,0.236,0.92,0.36c0.311,0.117,0.6,0.273,0.886,0.438c0.296,0.147,0.586,0.308,0.855,0.502   c0.277,0.182,0.56,0.359,0.811,0.58c0.529,0.407,1.019,0.875,1.473,1.381c0.907,1.011,1.711,2.16,2.354,3.42   c0.326,0.625,0.624,1.274,0.894,1.938c0.276,0.662,0.504,1.347,0.722,2.038c0.427,1.387,0.778,2.814,0.993,4.279   c0.148-1.479,0.091-2.979-0.082-4.474c-0.104-0.745-0.231-1.49-0.406-2.229c-0.17-0.739-0.37-1.479-0.647-2.196   c-0.259-0.723-0.571-1.433-0.932-2.124c-0.355-0.694-0.765-1.371-1.247-2c-0.474-0.635-1.002-1.24-1.592-1.788   c-0.281-0.29-0.599-0.539-0.916-0.791c-0.309-0.264-0.643-0.493-0.989-0.708c-0.34-0.225-0.689-0.433-1.059-0.602   c-0.366-0.175-0.723-0.379-1.108-0.506c-0.38-0.138-0.757-0.298-1.144-0.413l-1.17-0.311c-0.392-0.096-0.789-0.141-1.185-0.212   c-0.396-0.075-0.792-0.121-1.189-0.131c-0.396-0.019-0.795-0.053-1.19-0.056l-1.181,0.035c-0.792,0.006-1.556,0.146-2.336,0.216   c-0.765,0.124-1.525,0.268-2.284,0.417c-0.742,0.197-1.487,0.392-2.221,0.607l-2.167,0.73l-0.038,0.012   c-0.59,0.199-0.989,0.781-0.931,1.428c0.067,0.744,0.17,1.299,0.325,1.908c0.135,0.601,0.327,1.176,0.537,1.744   c0.233,0.559,0.448,1.124,0.74,1.65l0.413,0.802l0.478,0.762c0.303,0.518,0.662,0.995,1.032,1.463   c0.185,0.234,0.358,0.477,0.551,0.702l0.621,0.641c0.41,0.429,0.82,0.854,1.288,1.216c0.46,0.367,0.884,0.779,1.373,1.103   l1.459,0.965c0.49,0.312,1.027,0.541,1.536,0.812c0.515,0.261,1.021,0.535,1.566,0.72c0.533,0.211,1.076,0.397,1.609,0.595   c0.527,0.218,1.097,0.308,1.64,0.465l1.646,0.404c1.116,0.18,2.236,0.311,3.341,0.447c-1.054-0.395-2.097-0.781-3.135-1.145   L30.525,36.803z" fill="#3e8022" transform="matrix(3.426008462905884, 0, 0, 3.426008462905884, 103.08496856689453, -8.369163513183594)"></path></g></g><path text="unavukaadu" text-anchor="middle" font-size="100" letter-spacing="0" side="left" offset="0.5" dx="0" dy="0" space="preserve" href="" font-family="Raleway" font-scale="contain" transform="matrix(0.7046069502830505, 0, 0, 0.7046069502830505, 256.03521728515625, 458.4854431152344)" x="0" y="0" fill="#59a638" font-weight="700" font-style="italic" data-fl-textpath="" id="_T202KKAlcTpm5RGYhrsS6" d="M-282.95 1L-282.95 1Q-295.25 1 -295.25-11.8L-295.25-11.8Q-295.25-13.5 -295-15.45Q-294.75-17.4 -294.25-19.6L-294.25-19.6L-287.25-52.4L-273.95-52.4L-280.25-22.5Q-280.55-21 -280.75-19.8Q-280.95-18.6 -280.95-17.5L-280.95-17.5Q-280.95-10.4 -274.95-10.4L-274.95-10.4Q-271.45-10.4 -267.59999999999997-12.75Q-263.75-15.1 -260.55-19.9L-260.55-19.9L-253.64999999999998-52.4L-240.25-52.4L-248.14999999999998-15.4Q-248.25-14.9 -248.29999999999998-14.45Q-248.35-14 -248.35-13.6L-248.35-13.6Q-248.35-11.5 -245.95-11.4L-245.95-11.4L-248.35 0Q-250.14999999999998 0.3 -251.5 0.5Q-252.85 0.7 -253.95 0.7L-253.95 0.7Q-257.45 0.7 -259.4-0.7Q-261.34999999999997-2.1 -261.34999999999997-5L-261.34999999999997-5Q-261.34999999999997-5.8 -261.25-6.8Q-261.15-7.8 -260.65-9.8L-260.65-9.8Q-265.15-4.4 -270.9-1.7Q-276.65 1 -282.95 1ZM-238.35 0L-227.25-52.4L-215.14999999999998-52.4L-217.25-42.7Q-213.45-47.7 -207.64999999999998-50.5Q-201.85-53.3 -195.35-53.3L-195.35-53.3Q-191.95-53.3 -189.7-52.35Q-187.45-51.4 -186.1-49.8Q-184.75-48.2 -184.2-45.95Q-183.64999999999998-43.7 -183.64999999999998-41.2L-183.64999999999998-41.2Q-183.64999999999998-39.2 -183.89999999999998-37.05Q-184.14999999999998-34.9 -184.64999999999998-32.7L-184.64999999999998-32.7L-191.54999999999998 0L-204.95 0L-198.75-29.4Q-198.45-30.9 -198.25-32.25Q-198.04999999999998-33.6 -198.04999999999998-34.7L-198.04999999999998-34.7Q-198.04999999999998-38.2 -199.6-39.85Q-201.14999999999998-41.5 -203.75-41.5L-203.75-41.5Q-205.54999999999998-41.5 -207.64999999999998-40.7Q-209.75-39.9 -211.75-38.45Q-213.75-37 -215.5-35Q-217.25-33 -218.45-30.6L-218.45-30.6L-224.95 0L-238.35 0ZM-159.65 1L-159.65 1Q-164.05 1 -167.5-0.65Q-170.95-2.3 -173.35-5.2Q-175.75-8.1 -177-12.05Q-178.25-16 -178.25-20.5L-178.25-20.5Q-178.25-27 -175.9-32.95Q-173.55-38.9 -169.6-43.4Q-165.65-47.9 -160.45-50.6Q-155.25-53.3 -149.55-53.3L-149.55-53.3Q-144.15-53.3 -140.35-50.5Q-136.55-47.7 -135.15-43.2L-135.15-43.2L-133.15-52.2L-119.75-52.2L-127.55-15.4Q-127.85-14.3 -127.85-13.6L-127.85-13.6Q-127.85-11.5 -125.45-11.4L-125.45-11.4L-127.85 0Q-129.65 0.3 -131 0.5Q-132.35 0.7 -133.35 0.7L-133.35 0.7Q-136.85 0.7 -138.9-0.8Q-140.95-2.3 -140.95-5.3L-140.95-5.3Q-140.95-6.5 -140.35-9.1L-140.35-9.1Q-144.15-4.1 -149.3-1.55Q-154.45 1 -159.65 1ZM-153.65-10.4L-153.65-10.4Q-151.95-10.4 -150-11.05Q-148.05-11.7 -146.25-12.9Q-144.45-14.1 -142.85-15.7Q-141.25-17.3 -140.15-19.2L-140.15-19.2L-137.55-31.7Q-138.15-36.1 -141.05-39Q-143.95-41.9 -147.75-41.9L-147.75-41.9Q-150.95-41.9 -153.95-40.25Q-156.95-38.6 -159.2-35.85Q-161.45-33.1 -162.8-29.65Q-164.15-26.2 -164.15-22.6L-164.15-22.6Q-164.15-17.4 -161.35-13.9Q-158.55-10.4 -153.65-10.4ZM-105.35 0L-112.35-52.4L-98.44999999999999-52.4L-95.25-10.9Q-91.64999999999999-16.4 -88.69999999999999-21.5Q-85.75-26.6 -83.3-31.65Q-80.85-36.7 -78.89999999999999-41.75Q-76.94999999999999-46.8 -75.35-52.4L-75.35-52.4L-63.05-52.4Q-66.64999999999999-39.3 -73.89999999999999-26.2Q-81.14999999999999-13.1 -91.35 0L-91.35 0L-105.35 0ZM-50.25 1L-50.25 1Q-62.55 1 -62.55-11.8L-62.55-11.8Q-62.55-13.5 -62.3-15.45Q-62.05-17.4 -61.55-19.6L-61.55-19.6L-54.55-52.4L-41.25-52.4L-47.55-22.5Q-47.85-21 -48.05-19.8Q-48.25-18.6 -48.25-17.5L-48.25-17.5Q-48.25-10.4 -42.25-10.4L-42.25-10.4Q-38.75-10.4 -34.9-12.75Q-31.049999999999997-15.1 -27.85-19.9L-27.85-19.9L-20.950000000000003-52.4L-7.549999999999997-52.4L-15.450000000000003-15.4Q-15.549999999999997-14.9 -15.600000000000001-14.45Q-15.649999999999999-14 -15.649999999999999-13.6L-15.649999999999999-13.6Q-15.649999999999999-11.5 -13.25-11.4L-13.25-11.4L-15.649999999999999 0Q-17.450000000000003 0.3 -18.799999999999997 0.5Q-20.15 0.7 -21.25 0.7L-21.25 0.7Q-24.75 0.7 -26.700000000000003-0.7Q-28.65-2.1 -28.65-5L-28.65-5Q-28.65-5.8 -28.549999999999997-6.8Q-28.450000000000003-7.8 -27.950000000000003-9.8L-27.950000000000003-9.8Q-32.45-4.4 -38.2-1.7Q-43.95 1 -50.25 1ZM-5.65 0L 9.85-73L 23.15-73L 15.95-39Q 20.15-45.3  25.5-49.2Q 30.85-53.1  37.35-53.1L 37.35-53.1Q 42.85-53.1  45.55-50.1Q 48.25-47.1  48.25-41.7L 48.25-41.7Q 48.25-35.2  44.4-29.65Q 40.55-24.1  33.15-20.5L 33.15-20.5L 42.95 0L 28.75 0L 18.55-23.7Q 27.049999999999997-25.4  31.65-29.2Q 36.25-33  36.25-37.3L 36.25-37.3Q 36.25-39.6  34.95-40.7Q 33.65-41.8  31.65-41.8L 31.65-41.8Q 29.049999999999997-41.8  26.3-40.4Q 23.55-39  21-36.5Q 18.45-34  16.25-30.7Q 14.05-27.4  12.649999999999999-23.7L 12.649999999999999-23.7L 7.65 0L-5.65 0ZM 70.85 1L 70.85 1Q 66.45 1  63-0.65Q 59.55-2.3  57.15-5.2Q 54.75-8.1  53.5-12.05Q 52.25-16  52.25-20.5L 52.25-20.5Q 52.25-27  54.6-32.95Q 56.95-38.9  60.9-43.4Q 64.85-47.9  70.05-50.6Q 75.25-53.3  80.95-53.3L 80.95-53.3Q 86.35-53.3  90.15-50.5Q 93.95-47.7  95.35-43.2L 95.35-43.2L 97.35-52.2L 110.75-52.2L 102.95-15.4Q 102.65-14.3  102.65-13.6L 102.65-13.6Q 102.65-11.5  105.05-11.4L 105.05-11.4L 102.65 0Q 100.85 0.3  99.5 0.5Q 98.15 0.7  97.15 0.7L 97.15 0.7Q 93.65 0.7  91.6-0.8Q 89.55-2.3  89.55-5.3L 89.55-5.3Q 89.55-6.5  90.15-9.1L 90.15-9.1Q 86.35-4.1  81.2-1.55Q 76.05 1  70.85 1ZM 76.85-10.4L 76.85-10.4Q 78.55-10.4  80.5-11.05Q 82.45-11.7  84.25-12.9Q 86.05-14.1  87.65-15.7Q 89.25-17.3  90.35-19.2L 90.35-19.2L 92.95-31.7Q 92.35-36.1  89.45-39Q 86.55-41.9  82.75-41.9L 82.75-41.9Q 79.55-41.9  76.55-40.25Q 73.55-38.6  71.3-35.85Q 69.05-33.1  67.7-29.65Q 66.35-26.2  66.35-22.6L 66.35-22.6Q 66.35-17.4  69.15-13.9Q 71.95-10.4  76.85-10.4ZM 133.25000000000003 1L 133.25000000000003 1Q 128.85000000000002 1  125.40000000000002-0.65Q 121.95000000000002-2.3  119.55000000000003-5.2Q 117.15000000000002-8.1  115.90000000000002-12.05Q 114.65000000000002-16  114.65000000000002-20.5L 114.65000000000002-20.5Q 114.65000000000002-27  117.00000000000001-32.95Q 119.35000000000002-38.9  123.30000000000003-43.4Q 127.25000000000001-47.9  132.45000000000002-50.6Q 137.65000000000003-53.3  143.35000000000002-53.3L 143.35000000000002-53.3Q 148.75000000000003-53.3  152.55-50.5Q 156.35000000000002-47.7  157.75000000000003-43.2L 157.75000000000003-43.2L 159.75000000000003-52.2L 173.15000000000003-52.2L 165.35000000000002-15.4Q 165.05-14.3  165.05-13.6L 165.05-13.6Q 165.05-11.5  167.45000000000002-11.4L 167.45000000000002-11.4L 165.05 0Q 163.25000000000003 0.3  161.90000000000003 0.5Q 160.55 0.7  159.55 0.7L 159.55 0.7Q 156.05 0.7  154.00000000000003-0.8Q 151.95000000000002-2.3  151.95000000000002-5.3L 151.95000000000002-5.3Q 151.95000000000002-6.5  152.55-9.1L 152.55-9.1Q 148.75000000000003-4.1  143.60000000000002-1.55Q 138.45000000000002 1  133.25000000000003 1ZM 139.25000000000003-10.4L 139.25000000000003-10.4Q 140.95000000000002-10.4  142.90000000000003-11.05Q 144.85000000000002-11.7  146.65000000000003-12.9Q 148.45000000000002-14.1  150.05-15.7Q 151.65000000000003-17.3  152.75000000000003-19.2L 152.75000000000003-19.2L 155.35000000000002-31.7Q 154.75000000000003-36.1  151.85000000000002-39Q 148.95000000000002-41.9  145.15000000000003-41.9L 145.15000000000003-41.9Q 141.95000000000002-41.9  138.95000000000002-40.25Q 135.95000000000002-38.6  133.70000000000002-35.85Q 131.45000000000002-33.1  130.10000000000002-29.65Q 128.75000000000003-26.2  128.75000000000003-22.6L 128.75000000000003-22.6Q 128.75000000000003-17.4  131.55-13.9Q 134.35000000000002-10.4  139.25000000000003-10.4ZM 195.65 1L 195.65 1Q 191.25 1  187.8-0.65Q 184.35000000000002-2.3  181.95000000000002-5.2Q 179.55-8.1  178.3-12.05Q 177.05-16  177.05-20.5L 177.05-20.5Q 177.05-27  179.4-32.95Q 181.75-38.9  185.70000000000002-43.4Q 189.65-47.9  194.85000000000002-50.6Q 200.05-53.3  205.75-53.3L 205.75-53.3Q 211.15-53.3  214.95000000000002-50.5Q 218.75-47.7  220.15-43.2L 220.15-43.2L 226.55-73L 239.95000000000002-73L 227.75-15.4Q 227.45000000000002-14.3  227.45000000000002-13.6L 227.45000000000002-13.6Q 227.45000000000002-11.5  229.85000000000002-11.4L 229.85000000000002-11.4L 227.45000000000002 0Q 225.65 0.3  224.3 0.5Q 222.95000000000002 0.7  221.95000000000002 0.7L 221.95000000000002 0.7Q 218.45000000000002 0.7  216.4-0.7Q 214.35000000000002-2.1  214.35000000000002-5L 214.35000000000002-5Q 214.35000000000002-5.8  214.5-6.75Q 214.65-7.7  214.95000000000002-9.1L 214.95000000000002-9.1Q 211.15-4.1  206-1.55Q 200.85000000000002 1  195.65 1ZM 201.65-10.4L 201.65-10.4Q 203.35000000000002-10.4  205.3-11.05Q 207.25-11.7  209.05-12.9Q 210.85000000000002-14.1  212.45000000000002-15.7Q 214.05-17.3  215.15-19.2L 215.15-19.2L 217.75-31.7Q 217.15-36.1  214.25-39Q 211.35000000000002-41.9  207.55-41.9L 207.55-41.9Q 204.35000000000002-41.9  201.35000000000002-40.25Q 198.35000000000002-38.6  196.10000000000002-35.85Q 193.85000000000002-33.1  192.5-29.65Q 191.15-26.2  191.15-22.6L 191.15-22.6Q 191.15-17.4  193.95000000000002-13.9Q 196.75-10.4  201.65-10.4ZM 252.45000000000005 1L 252.45000000000005 1Q 240.15000000000003 1  240.15000000000003-11.8L 240.15000000000003-11.8Q 240.15000000000003-13.5  240.40000000000003-15.45Q 240.65000000000003-17.4  241.15000000000003-19.6L 241.15000000000003-19.6L 248.15000000000003-52.4L 261.45000000000005-52.4L 255.15000000000003-22.5Q 254.85000000000005-21  254.65000000000003-19.8Q 254.45000000000005-18.6  254.45000000000005-17.5L 254.45000000000005-17.5Q 254.45000000000005-10.4  260.45000000000005-10.4L 260.45000000000005-10.4Q 263.95000000000005-10.4  267.80000000000007-12.75Q 271.65000000000003-15.1  274.85-19.9L 274.85-19.9L 281.75000000000006-52.4L 295.15000000000003-52.4L 287.25000000000006-15.4Q 287.15000000000003-14.9  287.1-14.45Q 287.05000000000007-14  287.05000000000007-13.6L 287.05000000000007-13.6Q 287.05000000000007-11.5  289.45000000000005-11.4L 289.45000000000005-11.4L 287.05000000000007 0Q 285.25000000000006 0.3  283.90000000000003 0.5Q 282.55000000000007 0.7  281.45000000000005 0.7L 281.45000000000005 0.7Q 277.95000000000005 0.7  276.00000000000006-0.7Q 274.05000000000007-2.1  274.05000000000007-5L 274.05000000000007-5Q 274.05000000000007-5.8  274.15000000000003-6.8Q 274.25000000000006-7.8  274.75000000000006-9.8L 274.75000000000006-9.8Q 270.25000000000006-4.4  264.50000000000006-1.7Q 258.75000000000006 1  252.45000000000005 1Z"></path></svg></svg>